<?xml version="1.0" standalone="no"?><!DOCTYPE svg PUBLIC "-//W3C//DTD SVG 1.1//EN" "http://www.w3.org/Graphics/SVG/1.1/DTD/svg11.dtd"><svg t="1595227896789" class="icon" viewBox="0 0 1024 1024" version="1.1" xmlns="http://www.w3.org/2000/svg" p-id="5656" xmlns:xlink="http://www.w3.org/1999/xlink" width="200" height="200"><defs><style type="text/css"></style></defs><path d="M512 0C229.248 0 0 229.248 0 512s229.248 512 512 512 512-229.248 512-512S794.752 0 512 0z" fill="#ECB571" p-id="5657"></path><path d="M334.1568 261.0688v60.0576a26.496 26.496 0 0 0-9.0112 19.9168c0 14.7456 12.1088 26.7008 27.008 26.7008 14.9248 0 27.008-11.9552 27.008-26.7008 0-7.936-3.4816-15.0272-9.0112-19.9168v-60.0576H653.824v60.0576a26.496 26.496 0 0 0-8.9856 19.9168c0 14.7456 12.0832 26.7008 27.008 26.7008 14.8992 0 27.008-11.9552 27.008-26.7008 0-7.936-3.4816-15.0272-9.0112-19.9168v-60.0576h54.9376c19.8912 0 36.0192 15.9232 36.0192 35.584V706.816c0 19.6608-16.128 35.6096-36.0192 35.6096H279.2192A35.8144 35.8144 0 0 1 243.2 706.816V296.6272c0-19.6608 16.128-35.584 36.0192-35.584h54.9376z m412.6208 146.9952H277.1712v292.7104a8.4992 8.4992 0 0 0 8.448 8.32h452.7872a8.4992 8.4992 0 0 0 8.3968-8.32L746.752 408.064z m-62.2336 210.7904v38.8608h-75.52v-38.8608h75.52z m-267.7248 0v38.8608H339.456v-38.8608h77.3632z m134.4768 0v38.8608h-76.7488v-38.8608h76.7488z m133.248-74.6752v37.0432h-75.52v-37.0432h75.52z m-133.248 0v37.0432h-76.7488v-37.0432h76.7488z m-134.4768 0v37.0432H339.456v-37.0432h77.3632zM684.544 467.712v37.632h-75.52v-37.632h75.52z m-133.248 0v37.632h-76.7488v-37.632h76.7488z m-134.4768 0v37.632H339.456v-37.632h77.3632zM352.1536 230.4c7.8336-0.3328 14.4384 6.8096 14.4384 14.2848v89.0112c0 7.9872-6.6048 13.9264-14.4384 14.2592-7.808 0.3584-14.4128-6.8096-14.4128-14.2592V244.6848c0-8.0128 6.6048-13.9264 14.4128-14.2848z m319.6928 0c7.808-0.3328 14.4128 6.8096 14.4128 14.2848v89.0112c0 7.9872-6.6048 13.9264-14.4128 14.2592-7.8336 0.3584-14.4384-6.8096-14.4384-14.2592V244.6848c0-8.0128 6.6048-13.9264 14.4384-14.2848z" fill="#FFFFFF" p-id="5658"></path></svg>