<?xml version="1.0" standalone="no"?><!DOCTYPE svg PUBLIC "-//W3C//DTD SVG 1.1//EN" "http://www.w3.org/Graphics/SVG/1.1/DTD/svg11.dtd"><svg t="1595227911195" class="icon" viewBox="0 0 1024 1024" version="1.1" xmlns="http://www.w3.org/2000/svg" p-id="5896" xmlns:xlink="http://www.w3.org/1999/xlink" width="200" height="200"><defs><style type="text/css"></style></defs><path d="M512 0C229.248 0 0 229.248 0 512s229.248 512 512 512 512-229.248 512-512S794.752 0 512 0z" fill="#5BD171" p-id="5897"></path><path d="M707.328 316.672a207.1808 207.1808 0 0 1 0 292.992l-97.664 97.664A207.1808 207.1808 0 0 1 316.672 414.336l97.664-97.664a207.1808 207.1808 0 0 1 292.992 0z m-244.1472 97.664a34.5344 34.5344 0 0 0-48.8448 48.8448l146.4832 146.4832a34.5344 34.5344 0 0 0 48.8448-48.8448z" fill="#FFFFFF" p-id="5898"></path></svg>