<?xml version="1.0" standalone="no"?><!DOCTYPE svg PUBLIC "-//W3C//DTD SVG 1.1//EN" "http://www.w3.org/Graphics/SVG/1.1/DTD/svg11.dtd"><svg t="1595227904361" class="icon" viewBox="0 0 1024 1024" version="1.1" xmlns="http://www.w3.org/2000/svg" p-id="5776" xmlns:xlink="http://www.w3.org/1999/xlink" width="200" height="200"><defs><style type="text/css"></style></defs><path d="M512 0C229.248 0 0 229.248 0 512s229.248 512 512 512 512-229.248 512-512S794.752 0 512 0z" fill="#62C3CB" p-id="5777"></path><path d="M513.024 499.3536c48.4352-24.576 78.72-73.728 78.3616-127.2064 1.1264-77.056-61.6192-140.4416-140.288-141.7472-78.6688 1.28-141.4144 64.6912-140.288 141.7472-0.1536 54.0416 31.0272 103.5008 80.384 127.5904-91.9808 9.1648-161.664 85.4528-160.768 176.0256v9.8304c0 25.984 17.664 42.5216 53.8368 50.0224 39.936 5.7344 80.3072 7.8336 120.6016 6.2976h99.6864c94.08 0 175.2832 0 175.2832-56.32v-9.8304c1.024-92.8768-72.2176-170.368-166.8352-176.4096z m137.472 4.7104a125.1584 125.1584 0 0 0 64.6912-110.2592c0.896-68.1984-54.5792-124.3136-124.2112-125.5936h-18.4832v1.9712c6.8352 8.576 12.7488 17.792 17.6896 27.5456 53.1712-0.2048 96.4608 41.8304 96.6656 93.9264 0.256 52.0704-42.7008 94.464-95.872 94.72h-4.0192l52.6592 47.232c67.9936 2.9696 121.344 58.1632 120.6016 124.8256v8.6528c0.256 2.3296-0.8192 4.608-2.816 5.9136-6.656 4.3264-14.208 7.1424-22.0928 8.2688-12.4928 2.2272-25.1136 3.5328-37.8112 3.9424a63.488 63.488 0 0 1-6.8096 28.3392v2.3808h2.4064c52.2496 0 100.48-9.0624 100.48-50.432v-5.888c1.1776-80.5376-61.184-148.3264-143.104-155.5456z" fill="#FFFFFF" p-id="5778"></path></svg>