<?xml version="1.0" standalone="no"?><!DOCTYPE svg PUBLIC "-//W3C//DTD SVG 1.1//EN" "http://www.w3.org/Graphics/SVG/1.1/DTD/svg11.dtd"><svg t="1595227921032" class="icon" viewBox="0 0 1024 1024" version="1.1" xmlns="http://www.w3.org/2000/svg" p-id="6016" xmlns:xlink="http://www.w3.org/1999/xlink" width="200" height="200"><defs><style type="text/css"></style></defs><path d="M512 0C229.248 0 0 229.248 0 512s229.248 512 512 512 512-229.248 512-512S794.752 0 512 0z" fill="#E36386" p-id="6017"></path><path d="M650.7008 204.8a18.176 18.176 0 0 1 18.5344 17.7152v31.4112h77.4656a21.0432 21.0432 0 0 1 21.2992 19.8912v474.2656a20.7616 20.7616 0 0 1-6.4 14.3872 19.8912 19.8912 0 0 1-14.464 5.504h-470.272a19.8912 19.8912 0 0 1-14.4896-5.504 20.7616 20.7616 0 0 1-6.3744-14.3872V273.8176a20.7616 20.7616 0 0 1 6.4-14.3872 19.8912 19.8912 0 0 1 14.464-5.504h72.8576V222.5152A18.176 18.176 0 0 1 368.2816 204.8z m-301.4656 88.9088h-51.9424v434.4576h428.032v-434.432h-56.576v14.592a18.176 18.176 0 0 1-18.5344 17.6896H367.7952a18.176 18.176 0 0 1-18.56-17.6896v-14.592z m166.4768 88.3712c11.3152 0 20.48 9.344 20.48 20.8896v91.52h89.088c11.3152 0 20.48 9.3696 20.48 20.9152 0 11.5456-9.1648 20.9152-20.48 20.9152h-89.088v90.496c0 11.5456-9.1648 20.8896-20.48 20.8896a20.6848 20.6848 0 0 1-20.4544-20.8896V535.808h-89.088a20.6848 20.6848 0 0 1-20.48-20.9152c0-11.52 9.1648-20.8896 20.48-20.8896h89.088V402.944c0-11.52 9.1648-20.8896 20.48-20.8896z" fill="#FFFFFF" p-id="6018"></path></svg>